<svg version="1.1" xmlns="http://www.w3.org/2000/svg" xmlns:xlink="http://www.w3.org/1999/xlink" width="511.552px" height="511.552px" viewBox="0,0,256,256"><g fill="#ffffff" fill-rule="nonzero" stroke="none" stroke-width="1" stroke-linecap="butt" stroke-linejoin="miter" stroke-miterlimit="10" stroke-dasharray="" stroke-dashoffset="0" font-family="none" font-weight="none" font-size="none" text-anchor="none" style="mix-blend-mode: normal"><g transform="translate(0.0001,-0.00031) scale(0.50044,0.50044)"><g><g><g><path d="M337.013,236.48c-4.651,-3.648 -11.328,-2.773 -14.976,1.877l-149.333,192c-3.627,4.629 -2.795,11.349 1.856,14.955c1.941,1.515 4.267,2.24 6.549,2.24c3.179,0 6.315,-1.408 8.427,-4.117l149.333,-192c3.627,-4.651 2.774,-11.35 -1.856,-14.955z"></path><path d="M298.443,362.219c-23.531,0 -42.667,19.136 -42.667,42.667c0,23.531 19.136,42.667 42.667,42.667c23.531,0 42.667,-19.136 42.667,-42.667c-0.001,-23.531 -19.137,-42.667 -42.667,-42.667zM298.443,426.219c-11.755,0 -21.333,-9.557 -21.333,-21.333c0,-11.776 9.579,-21.333 21.333,-21.333c11.755,0 21.333,9.557 21.333,21.333c0,11.776 -9.579,21.333 -21.333,21.333z"></path><path d="M213.109,319.552c23.531,0 42.667,-19.136 42.667,-42.667c0,-23.531 -19.136,-42.667 -42.667,-42.667c-23.531,0 -42.667,19.136 -42.667,42.667c0.001,23.531 19.137,42.667 42.667,42.667zM213.109,255.552c11.755,0 21.333,9.557 21.333,21.333c0,11.776 -9.579,21.333 -21.333,21.333c-11.755,0 -21.333,-9.557 -21.333,-21.333c0,-11.776 9.579,-21.333 21.333,-21.333z"></path><path d="M408.395,277.227l-143.19,-271.979c-3.691,-6.997 -15.189,-6.997 -18.88,0l-143.168,271.979c-24.427,46.379 -23.829,101.739 1.579,148.096c26.752,48.811 76.971,80.789 134.357,85.547c5.483,0.427 11.051,0.683 16.683,0.683c5.632,0 11.2,-0.256 16.725,-0.683c57.344,-4.757 107.563,-36.736 134.315,-85.547c25.408,-46.358 26.005,-101.718 1.579,-148.096zM388.128,415.061c-23.317,42.496 -67.179,70.379 -117.355,74.539c-9.856,0.789 -20.139,0.789 -29.931,0c-50.197,-4.16 -94.08,-32.043 -117.376,-74.539c-22.336,-40.661 -22.827,-87.253 -1.451,-127.893l133.76,-254.059l133.76,254.059c21.398,40.619 20.886,87.232 -1.407,127.893z"></path></g></g></g></g></g></svg>