<svg version="1.1" xmlns="http://www.w3.org/2000/svg" xmlns:xlink="http://www.w3.org/1999/xlink" width="490px" height="490px" viewBox="0,0,256,256"><g fill="#ffffff" fill-rule="nonzero" stroke="none" stroke-width="1" stroke-linecap="butt" stroke-linejoin="miter" stroke-miterlimit="10" stroke-dasharray="" stroke-dashoffset="0" font-family="none" font-weight="none" font-size="none" text-anchor="none" style="mix-blend-mode: normal"><g transform="scale(0.52245,0.52245)"><path d="M245,155c-24.813,0 -45,20.187 -45,45c0,19.556 12.539,36.239 30,42.43v82.57c0,8.284 6.716,15 15,15c8.284,0 15,-6.716 15,-15v-82.57c17.461,-6.191 30,-22.874 30,-42.43c0,-24.813 -20.187,-45 -45,-45zM245,215c-8.271,0 -15,-6.729 -15,-15c0,-8.271 6.729,-15 15,-15c8.271,0 15,6.729 15,15c0,8.271 -6.729,15 -15,15zM357.018,270.003c-2.223,0 -4.479,-0.496 -6.609,-1.543c-7.434,-3.657 -10.495,-12.647 -6.839,-20.081c7.44,-15.126 11.213,-31.403 11.213,-48.379c0,-60.534 -49.248,-109.783 -109.782,-109.783c-60.534,0 -109.783,49.249 -109.783,109.783c0,16.977 3.772,33.253 11.213,48.379c3.656,7.434 0.595,16.424 -6.839,20.081c-7.438,3.657 -16.425,0.595 -20.081,-6.839c-9.484,-19.281 -14.293,-40.013 -14.293,-61.621c0,-77.077 62.706,-139.783 139.782,-139.783c77.076,0 139.782,62.706 139.782,139.783c0,21.607 -4.809,42.34 -14.293,61.621c-2.609,5.304 -7.934,8.382 -13.471,8.382zM445,460h-185v-60.557c103.298,-7.7 185,-94.211 185,-199.443c0,-110.28 -89.72,-200 -200,-200c-110.28,0 -200,89.72 -200,200c0,105.232 81.702,191.744 185,199.443v60.557h-185c-8.284,0 -15,6.716 -15,15c0,8.284 6.716,15 15,15h400c8.284,0 15,-6.716 15,-15c0,-8.284 -6.716,-15 -15,-15zM75,200c0,-93.738 76.262,-170 170,-170c93.738,0 170,76.262 170,170c0,93.738 -76.262,170 -170,170c-93.738,0 -170,-76.262 -170,-170z" id="XMLID_14_"></path></g></g></svg>